<svg id="visual" viewBox="0 0 900 450" xmlns="http://www.w3.org/2000/svg" xmlns:xlink="http://www.w3.org/1999/xlink" version="1.1"><rect x="0" y="0" width="900" height="450" fill="#ffffff"></rect><defs><linearGradient id="grad1_0" x1="50%" y1="100%" x2="100%" y2="0%"><stop offset="10%" stop-color="#ff006c" stop-opacity="1"></stop><stop offset="90%" stop-color="#ff006c" stop-opacity="1"></stop></linearGradient></defs><defs><linearGradient id="grad1_1" x1="50%" y1="100%" x2="100%" y2="0%"><stop offset="10%" stop-color="#ff006c" stop-opacity="1"></stop><stop offset="90%" stop-color="#ffa0b2" stop-opacity="1"></stop></linearGradient></defs><defs><linearGradient id="grad1_2" x1="50%" y1="100%" x2="100%" y2="0%"><stop offset="10%" stop-color="#ffffff" stop-opacity="1"></stop><stop offset="90%" stop-color="#ffa0b2" stop-opacity="1"></stop></linearGradient></defs><defs><linearGradient id="grad2_0" x1="0%" y1="100%" x2="50%" y2="0%"><stop offset="10%" stop-color="#ff006c" stop-opacity="1"></stop><stop offset="90%" stop-color="#ff006c" stop-opacity="1"></stop></linearGradient></defs><defs><linearGradient id="grad2_1" x1="0%" y1="100%" x2="50%" y2="0%"><stop offset="10%" stop-color="#ffa0b2" stop-opacity="1"></stop><stop offset="90%" stop-color="#ff006c" stop-opacity="1"></stop></linearGradient></defs><defs><linearGradient id="grad2_2" x1="0%" y1="100%" x2="50%" y2="0%"><stop offset="10%" stop-color="#ffa0b2" stop-opacity="1"></stop><stop offset="90%" stop-color="#ffffff" stop-opacity="1"></stop></linearGradient></defs><g transform="translate(900, 450)"><path d="M-270 0C-266 -37.2 -262 -74.4 -243.9 -101C-225.8 -127.7 -193.6 -143.9 -169.7 -169.7C-145.8 -195.6 -130.2 -231.1 -103.3 -249.4C-76.4 -267.8 -38.2 -268.9 0 -270L0 0Z" fill="#ffd0d8"></path><path d="M-180 0C-177.3 -24.8 -174.7 -49.6 -162.6 -67.4C-150.5 -85.1 -129.1 -95.9 -113.1 -113.1C-97.2 -130.4 -86.8 -154.1 -68.9 -166.3C-50.9 -178.5 -25.5 -179.3 0 -180L0 0Z" fill="#ff6a8e"></path><path d="M-90 0C-88.7 -12.4 -87.3 -24.8 -81.3 -33.7C-75.3 -42.6 -64.5 -48 -56.6 -56.6C-48.6 -65.2 -43.4 -77 -34.4 -83.1C-25.5 -89.3 -12.7 -89.6 0 -90L0 0Z" fill="#ff006c"></path></g><g transform="translate(0, 0)"><path d="M270 0C264.6 34.1 259.2 68.3 247.6 102.6C236 136.8 218.1 171.2 190.9 190.9C163.7 210.6 127.1 215.6 93.8 226.4C60.4 237.1 30.2 253.5 0 270L0 0Z" fill="#ffd0d8"></path><path d="M180 0C176.4 22.8 172.8 45.5 165.1 68.4C157.3 91.2 145.4 114.1 127.3 127.3C109.1 140.4 84.8 143.7 62.5 150.9C40.3 158.1 20.1 169 0 180L0 0Z" fill="#ff6a8e"></path><path d="M90 0C88.2 11.4 86.4 22.8 82.5 34.2C78.7 45.6 72.7 57.1 63.6 63.6C54.6 70.2 42.4 71.9 31.3 75.5C20.1 79 10.1 84.5 0 90L0 0Z" fill="#ff006c"></path></g></svg>
